PathFileType	4	(X/Y/Z)	OpenSim_Sub04_EMGStiffKnee_Accel.trc
DataRate	CameraRate	NumFrames	NumMarkers	Units	OrigDataRate	OrigDataStartFrame	OrigNumFrames
100	100	23	8	m	100	6208	8277
Frame#	Time	torso_imu_offset_imu	pelvis_imu_offset_imu	tibia_r_imu_offset_imu	femur_r_imu_offset_imu	tibia_l_imu_offset_imu	femur_l_imu_offset_imu	toes_r_imu_offset_imu	toes_l_imu_offset_imu
				X1	Y1	Z1	X2	Y2	Z2	X3	Y3	Z3	X4	Y4	Z4	X5	Y5	Z5	X6	Y6	Z6	X7	Y7	Z7	X8		Y8	Z8	

6208	62.07000000	-8.44115368	-0.31346847	9.60603457	9.84579537	1.19998347	5.65024039	17.21784223	-2.40422074	3.59664591	9.81743325	-7.22273977	0.65573217	11.17741343	-2.36212842	-0.09941488	12.89482078	-2.19259406	-2.10650762	5.84875342	-4.32526699	12.06080787	5.05482828	1.89667769	11.37560718
6209	62.08000000	-8.01812040	-0.62674738	9.47501799	10.02769732	0.49302790	5.79864322	17.84354962	-1.88477701	3.11686598	9.55069178	-6.83077583	1.47094925	10.38154554	-3.09785691	0.02767224	11.01310114	-3.80573197	-2.51154973	6.33475048	-2.46864209	12.51760228	5.37345644	2.29179542	11.24839126
6210	62.09000000	-7.56956474	-0.91703790	9.21800733	9.97225986	-0.09051018	5.59630098	17.94540991	-0.49155099	2.04934292	9.47302864	-6.26176292	2.43548470	9.83969153	-5.82413380	1.09384819	9.88939380	-4.18872841	-3.03316347	8.19567417	-3.18037778	13.01011112	5.39142308	2.50008951	11.19875430
6211	62.10000000	-7.20536116	-1.03094215	8.98826931	9.65474799	-0.58965043	5.31859160	17.11770423	1.18504821	0.19413185	9.85455292	-5.15723112	3.18301845	9.06973611	-6.52388749	0.74748175	9.58597655	-3.59059189	-3.12788627	9.08395448	-6.52922029	12.97713649	5.61154437	1.66847518	10.92262206
6212	62.11000000	-6.97172711	-1.14969912	8.80587829	9.26346280	-1.05615074	5.12186174	15.14464192	2.95490139	-1.31618817	10.61298482	-3.60388611	3.40310401	8.18079330	-5.21889272	-0.23445917	9.57872136	-2.51347377	-2.71514770	13.54337690	-6.73733067	12.93386480	5.62100569	2.29084314	11.01271547
6213	62.12000000	-7.00002188	-1.35778610	8.75445903	8.91451731	-1.30602274	4.94924545	12.43342924	5.26645610	-2.03258591	11.17290969	-1.98553120	2.95310789	8.11276071	-3.92491938	-0.43258092	9.71552063	-1.47446914	-2.36489219	11.60580502	-6.00375076	13.29526954	5.57409476	2.75383088	10.82517068
6214	62.13000000	-7.32191711	-1.59566508	8.77336196	8.60205895	-1.34032769	4.65245646	9.68909140	7.58902409	-1.45460894	11.19448080	-0.43652421	2.05279268	8.76275063	-3.11027825	-1.09376164	9.82216025	-0.61961918	-2.60508993	10.76360016	-7.24121504	10.95645952	4.96821252	3.18184084	11.08294255
6215	62.14000000	-7.53482043	-1.84206981	8.83322212	8.51580903	-1.24701877	4.31833134	7.09518855	10.12404640	-0.38091995	11.30535622	0.75016556	1.21974927	9.83027890	-2.45623986	-1.67057190	9.60917037	0.12616098	-3.11123534	10.67598235	-5.54740922	9.07112024	5.08574267	3.60163838	10.83702073
6216	62.15000000	-7.52824040	-2.06197466	9.03748006	8.68540119	-1.05491962	4.22282292	4.44245178	12.57801982	-1.92569100	12.37670218	0.97799498	0.41603186	10.75514013	-2.04559681	-1.62565287	9.07534028	0.80457287	-3.32734559	7.31061306	-3.24436995	19.03591138	5.45086116	3.49921152	10.58926663
6217	62.16000000	-7.69902871	-2.22753491	9.31814940	9.10214969	-0.80137839	4.47291047	3.15655433	12.11698683	-1.51130892	13.29468219	0.19259814	-0.49855832	10.85226319	-1.85510629	-1.64613474	8.57734065	1.27097527	-3.38074441	0.66610940	-9.85588883	22.37520647	5.42887617	3.22557290	10.61326760
6218	62.17000000	-8.29778639	-2.32830006	9.54409573	9.76037128	-0.50260656	4.75236181	3.70471239	9.20608287	1.75725292	12.89598131	-0.81776615	-1.31425131	10.59621072	-1.97159327	-1.37482404	8.45682952	1.53418042	-3.39481613	-9.21195727	-13.26832259	15.49763036	4.94339629	3.23378424	10.92539633
6219	62.18000000	-8.63140611	-2.24916209	9.63365995	10.45591357	-0.10121111	4.55954440	4.62948186	7.51730696	2.60366647	11.63613996	-1.73976439	-1.31534170	10.43953894	-2.24038412	-0.80332223	8.81279529	1.79656043	-3.50476108	-2.31359868	-8.80887295	17.05447423	4.80827869	3.03996701	10.96619545
6220	62.19000000	-7.97915743	-1.86832858	9.54994948	10.87866992	0.35326562	4.26693920	5.11078741	7.30973130	1.07196358	10.32447311	-2.08524239	-0.16191552	10.24823527	-2.49916386	-0.34007318	9.36933731	2.04561548	-3.62785218	-0.46245401	-7.31447423	17.08650774	5.28650608	2.63577286	10.78379163
6221	62.20000000	-7.27384692	-1.46367072	9.27129527	11.04386435	0.83794052	4.25436105	5.02044001	6.00976397	0.31482523	9.69075723	-2.39911315	1.33364339	10.06522437	-2.54491331	-0.21171157	9.61004547	2.09717379	-3.42951883	-4.27211790	-6.91841664	14.44267496	5.29056075	2.38270642	10.81965992
6222	62.21000000	-7.27099276	-1.11904579	8.98793181	11.05803767	1.30046244	4.12989759	4.89470855	3.72797545	1.55365800	9.66895535	-3.04882049	2.26692771	9.96242927	-2.31918903	-0.13513966	9.60080029	1.74215175	-3.06240762	-0.97294265	-4.79551635	14.47467669	4.95029155	2.59883395	10.85952893
6223	62.22000000	-7.24815916	-0.79985411	8.86064662	10.63928771	1.42194586	3.90548983	4.63323278	2.89290324	1.35055001	9.71150111	-3.50892777	2.66417239	9.88076094	-1.89181632	-0.14757091	9.50906910	1.17889546	-2.79988183	0.68899287	-3.13544447	14.31340590	4.62979666	2.74777017	10.99576872
6224	62.23000000	-7.02986359	-0.67537415	8.70688146	9.85395061	1.26914762	3.79498445	4.29746222	3.72856645	0.15303546	9.71581594	-3.79807520	2.81116249	9.77993448	-1.41947895	-0.32582296	9.33994106	0.72117377	-2.68912107	1.17702880	-2.26883638	13.21930785	5.13008179	2.77795963	10.65031932
6225	62.24000000	-7.00190659	-0.62897391	8.58245291	9.11762448	1.05123392	3.72014410	4.56168235	4.85292396	0.55329717	9.47544511	-4.16797418	2.73175790	9.57128288	-1.25850740	-0.45755637	9.13520168	0.55989157	-2.73266726	2.51777282	-2.07792325	12.21935858	5.27805542	2.89727944	10.48529487
6226	62.25000000	-7.15519806	-0.72306846	8.56307654	8.56993621	0.80859497	3.62455276	5.30001401	5.72992471	0.96215100	8.86855235	-4.52915094	2.62865004	9.33877249	-1.68281871	-0.55207119	8.85118360	0.75325234	-2.77866613	4.07412106	-1.63156524	11.68995922	5.34136164	2.90347175	10.50709369
6227	62.26000000	-7.19196455	-0.94107852	8.55821145	8.18692831	0.62661559	3.45989172	6.21353412	6.67900294	0.59526957	8.32986398	-4.78072369	2.60117081	9.28091440	-2.28223300	-0.62020101	8.59730642	1.06258259	-2.73222785	5.27150745	-0.96458329	11.14556006	5.12055914	2.97554570	10.56924325
6228	62.27000000	-7.11645310	-1.16557335	8.54724541	7.98177966	0.39955803	3.27494835	7.07073714	7.35092152	0.27277072	7.86750584	-5.13813817	2.61124646	9.28441054	-2.69752727	-0.52717554	8.43694886	1.30664669	-2.68746611	6.52685052	-0.45882849	10.52287317	5.03627230	3.05021509	10.51421042
6229	62.28000000	-7.03528041	-1.34425656	8.57556790	7.96908304	0.22828016	3.15603599	7.52140344	7.20657534	0.57527555	7.25572267	-5.44664889	2.67791586	9.27952319	-2.74340867	-0.54511972	8.40750615	1.44700566	-2.67490557	7.67615433	-0.46138774	9.67482402	5.45940289	2.90647632	10.36958931
6230	62.29000000	-6.95814075	-1.42017551	8.58886036	8.13299143	0.02837834	3.09812607	7.38616246	6.56692123	0.99016332	6.62537949	-5.59958241	2.79886535	9.36147631	-2.64821080	-0.62081810	8.49598992	1.42656080	-2.73993747	8.84124415	-0.75050668	8.93503224	5.56180750	2.82091427	10.25183497
